PathFileType	4	(X/Y/Z)	pose_F01_0-89.trc
DataRate	CameraRate	NumFrames	NumMarkers	Units	OrigDataRate	OrigDataStartFrame	OrigNumFrames
30	30	8	21	m	30	44	89
Frame#	Time	CHip			RHip			RKnee			RAnkle			RBigToe			RSmallToe			RHeel			LHip			LKnee			LAnkle			LBigToe			LSmallToe			LHeel			Neck			Nose			RShoulder			RElbow			RWrist			LShoulder			LElbow			LWrist			
		X1	Y1	Z1	X2	Y2	Z2	X3	Y3	Z3	X4	Y4	Z4	X5	Y5	Z5	X6	Y6	Z6	X7	Y7	Z7	X8	Y8	Z8	X9	Y9	Z9	X10	Y10	Z10	X11	Y11	Z11	X12	Y12	Z12	X13	Y13	Z13	X14	Y14	Z14	X15	Y15	Z15	X16	Y16	Z16	X17	Y17	Z17	X18	Y18	Z18	X19	Y19	Z19	X20	Y20	Z20	X21	Y21	Z21	
44	1.4666666666666666	-0.2578923377299044	1.9142474613623386	-0.5866490839717761	-0.2748934149423621	1.9127514208328449	-0.5255283525405822	-0.19584529631436082	1.7290167387203068	-0.6120090556497891													-0.24182946553970747	1.91817642173892	-0.6456502853973517	-0.2417918292726901	1.767434236866624	-0.673434882144353				-0.44124918619919706	1.521230380701598	-0.9745484938546997	-0.4407813295869996	1.5239691070896415	-0.972902202689888				-0.2580198968880236	2.08162254142401	-0.6256055365431771	-0.2537351274981766	2.151970125798975	-0.5850709308174398	-0.2806180773987226	2.0774963273674634	-0.5483069901606864	-0.3019134848414544	2.0938516591006744	-0.3948405899779778	-0.30095178001218575	2.144348064987698	-0.48963246175852215	-0.2342459602996342	2.086474153051568	-0.7057856213084857	-0.17799609756731097	2.1081856976967233	-0.7438228793067025	-0.19673611690030973	2.145501563318998	-0.7577629422001745
45	1.5	-0.26334371328341605	1.9095685178634625	-0.5673994196427231	-0.27693257436191965	1.9056869373649932	-0.5051160855956349	-0.19584529631436082	1.7290167387203068	-0.6120090556497891													-0.24441627747156472	1.9130478931634745	-0.6339585463006259	-0.24308771161841802	1.75991108604511	-0.6671438119681831				-0.44124918619919706	1.521230380701598	-0.9745484938546997	-0.4407813295869996	1.5239691070896415	-0.972902202689888				-0.2617135880535556	2.077338774712666	-0.6095926626633245	-0.2550354556058598	2.1472310259460783	-0.5890118075792522	-0.28579875286754863	2.0723785992022985	-0.5378819435825614	-0.29202186991512785	2.0732018196659983	-0.3990443490355191	-0.31181994867610496	2.106572878292663	-0.4088180573722204	-0.23661493505200376	2.0814524201768476	-0.6839699530285664	-0.18498364257502248	2.0900640441425944	-0.7544375118212265	-0.19275474119719346	2.145715315079838	-0.7738307584115967
46	1.5333333333333334	-0.26558521570871846	1.9010155626030905	-0.5527611789991147	-0.28385299598578	1.8975845795482689	-0.4893023424541818	-0.19584529631436082	1.7290167387203068	-0.6120090556497891													-0.2487921174920967	1.9054132546572917	-0.6172980379639509	-0.24394924846646698	1.7532194636649816	-0.66147201300401				-0.44124918619919706	1.521230380701598	-0.9745484938546997	-0.4407813295869996	1.5239691070896415	-0.972902202689888				-0.27052633435827655	2.065055019632573	-0.5907072262349008	-0.2524552662965807	2.1327735342914047	-0.5950025035538998	-0.2920912364726719	2.061051329869925	-0.512514090004036	-0.31657097540182216	2.06385461270602	-0.36980412184797407	-0.3232664818149288	2.0984353767674087	-0.3492656117578149	-0.2436700574068349	2.0696367512355014	-0.6673670190340962	-0.1872711531066811	2.0785737243313136	-0.759807317578194	-0.17985185728163436	2.140217186125394	-0.8004460431043839
47	1.5666666666666667	-0.27204734681069614	1.8862008840471942	-0.5382876569119661	-0.2853138518509104	1.8839433819464462	-0.47589635801702873	-0.19584529631436082	1.7290167387203068	-0.6120090556497891													-0.25487369056827675	1.8907606227902118	-0.5996814277204887	-0.24937212590690574	1.745685864147334	-0.6510711479580512				-0.44124918619919706	1.521230380701598	-0.9745484938546997	-0.4407813295869996	1.5239691070896415	-0.972902202689888				-0.2761060596751831	2.0521202991906495	-0.5702456475995211	-0.25763647041286863	2.1203286779371924	-0.5982862442997723	-0.2971855245071376	2.050393830959035	-0.4928479824484023	-0.3225268771871104	2.0539396353624713	-0.3472263690607454	-0.33471301495375266	2.090297875242155	-0.2897131661434094	-0.25393243263055476	2.054721566393069	-0.6512004540173417	-0.20118013067156656	2.067639776982513	-0.7765332986539449	-0.17142859891485812	2.1272143978070934	-0.8530204417069672
48	1.6	-0.27482926134261665	1.8859655312199932	-0.5274443173459668	-0.28659350430775204	1.8820112611818898	-0.46177296489942404	-0.3070076023620135	1.7346808867893564	-0.4543703670245184													-0.2557880188105756	1.889421735324924	-0.5911271971113654	-0.2543650540779174	1.747246706271184	-0.646009408768773				-0.44124918619919706	1.521230380701598	-0.9745484938546997	-0.4407813295869996	1.5239691070896415	-0.972902202689888				-0.2812355109644588	2.0480192099773262	-0.5596890122678453	-0.2600082460008283	2.1117949725309373	-0.5952516440961962	-0.30002049940960596	2.0435682437897196	-0.47586904898257026	-0.31936926391365644	2.0447837002706724	-0.33613105486134925	-0.3308954199890392	2.0657299801715	-0.2295018995034511	-0.2624515761198183	2.0523696401302898	-0.6419264467359546	-0.2152007383212423	2.0584011821232058	-0.7829885142637123	-0.1643613186540145	2.1011534092752737	-0.8869432369801094
49	1.6333333333333333	-0.2768584354498046	1.8815818025263216	-0.5160036033493334	-0.29154711605300926	1.8760242916693581	-0.45113108316043216	-0.3070076023620135	1.7346808867893564	-0.4543703670245184													-0.2607917356872495	1.8843027652639182	-0.5806346900182572	-0.2537753104857087	1.7463135977696307	-0.6437567852689859				-0.44124918619919706	1.521230380701598	-0.9745484938546997	-0.4407813295869996	1.5239691070896415	-0.972902202689888				-0.28566453686308046	2.043345413757586	-0.5466905629607406	-0.26107254070208685	2.1078665235340552	-0.5883869964873474	-0.30577709422533783	2.0403671884030006	-0.4605260733386809	-0.32836187569827746	2.0383286426114733	-0.3235978398812969	-0.3452312597097114	2.0432742034344424	-0.1899897254964367	-0.2657087901679462	2.0508778960695513	-0.6340262772495885	-0.22299567324800618	2.05671862291866	-0.7792780567450046	-0.16721849003561232	2.0660508144706973	-0.9005004445063814
50	1.6666666666666667	-0.2770048822632398	1.8751077222548118	-0.514965818402439	-0.2933431323859961	1.8707884869657625	-0.4480396318879485	-0.3070076023620135	1.7346808867893564	-0.4543703670245184													-0.26374268837445763	1.8789685665574933	-0.5808037089723118	-0.2531855668935001	1.7453804892680775	-0.641504161769199				-0.44124918619919706	1.521230380701598	-0.9745484938546997	-0.4407813295869996	1.5239691070896415	-0.972902202689888				-0.28874926513424254	2.04328370792882	-0.5393266102918283	-0.263174419338874	2.1066880499146126	-0.5863079383026223	-0.3086840279004257	2.039903086273507	-0.4531895070831564	-0.3343638527123083	2.0255897118781174	-0.3017652355819111	-0.35738813614121	2.0074399227320856	-0.1607138083728989	-0.26786219584533283	2.0506706513672714	-0.6317090084102667	-0.22776850088211348	2.0408658397659494	-0.7619017008633074	-0.17746692473044248	2.033274320793394	-0.8763963714795525
51	1.7	-0.2780025158184559	1.8781227918350778	-0.5102076507449269	-0.29248422626343124	1.8740081452503878	-0.4454642344970114	-0.3070076023620135	1.7346808867893564	-0.4543703670245184													-0.263111096661943	1.8828716208990635	-0.5780797917261589	-0.25259582330129143	1.7444473807665242	-0.639251538269412				-0.44124918619919706	1.521230380701598	-0.9745484938546997	-0.4407813295869996	1.5239691070896415	-0.972902202689888				-0.29052552263959075	2.044729025797153	-0.5369258556012534	-0.2652234217188686	2.109622647332257	-0.5761015916066566	-0.30959246170286786	2.0413952565201754	-0.448339291486746	-0.32939858078072365	2.0102517958565467	-0.3049316606886677	-0.3455642684641588	1.9764193172986002	-0.15967572242811917	-0.26898495613292484	2.049319631390072	-0.6260523785616632	-0.23232621614235333	2.027330625948648	-0.7448029311830119	-0.1905764677978274	2.003279594792598	-0.8642656205456977
